# xmcd
#
# Track frame offsets:
#	150
#	16655
#	31735
#	42822
#	56270
#	65322
#	79807
#	90680
#	102977
#	113855
#
# Disc length: 1699 seconds
#
# Revision: 3
# Processed by: cddbd v1.5.2PL0 Copyright (c) Steve Scherf et al.
# Submitted via: FairStars CD Ripper 1.01
#
DISCID=6c06a10a
DTITLE=George Jones - Friends In High Places
DYEAR=1991
DGENRE=Country
TTITLE0=George Jones With Randy Travis - A Few Ole Country Boys
TTITLE1=George Jones With Emmylou Harris - All Fall Down
TTITLE2=George Jones With Charlie Daniels - Fiddle And Guitar Band
TTITLE3=George Jones With Vern Gosdin - All That We've Got Left
TTITLE4=George Jones With Buck Owens - Love's Gonna Live Here
TTITLE5=George Jones With Shelby Lynne - If Could Bottle This Up
TTITLE6=George Jones With Tim Mensy - I've Been There
TTITLE7=George Jones With Ricky Skaggs - You Can't Do Wrong And Get By
TTITLE8=George Jones With Ricky Van Shelton - It Hurts As Much In Texas
TTITLE9=George Jones With Sweethearts Of The Rodeo - Traveller's Prayer
EXTD=
EXTT0=
EXTT1=
EXTT2=
EXTT3=
EXTT4=
EXTT5=
EXTT6=
EXTT7=
EXTT8=
EXTT9=
PLAYORDER=
